<svg xmlns="http://www.w3.org/2000/svg" viewBox="0 0 1400 1100" width="1400" height="1100">
  <defs>
    <style>
      .title { font-family: "Microsoft YaHei", "PingFang SC", sans-serif; font-size: 22px; font-weight: bold; fill: #2c3e50; }
      .subtitle { font-family: "Microsoft YaHei", "PingFang SC", sans-serif; font-size: 14px; font-weight: bold; fill: #34495e; }
      .folder-text { font-family: "Microsoft YaHei", "PingFang SC", sans-serif; font-size: 12px; fill: #fff; }
      .file-text { font-family: "Microsoft YaHei", "PingFang SC", sans-serif; font-size: 11px; fill: #2c3e50; }
      .node-text { font-family: "Microsoft YaHei", "PingFang SC", sans-serif; font-size: 11px; fill: #fff; }
      .desc-text { font-family: "Microsoft YaHei", "PingFang SC", sans-serif; font-size: 10px; fill: #7f8c8d; }
      .signal-text { font-family: "Microsoft YaHei", "PingFang SC", sans-serif; font-size: 10px; fill: #2c3e50; }
      .legend-text { font-family: "Microsoft YaHei", "PingFang SC", sans-serif; font-size: 11px; fill: #2c3e50; }
    </style>
    <marker id="arrow" markerWidth="10" markerHeight="10" refX="9" refY="3" orient="auto" markerUnits="strokeWidth">
      <path d="M0,0 L0,6 L9,3 z" fill="#7f8c8d"/>
    </marker>
    <marker id="arrow-event" markerWidth="10" markerHeight="10" refX="9" refY="3" orient="auto" markerUnits="strokeWidth">
      <path d="M0,0 L0,6 L9,3 z" fill="#e74c3c"/>
    </marker>
  </defs>

  <!-- 背景 -->
  <rect width="1400" height="1100" fill="#f8f9fa"/>

  <!-- ========== 标题 ========== -->
  <text x="700" y="35" text-anchor="middle" class="title">Demo 项目结构示意图</text>
  <text x="700" y="55" text-anchor="middle" class="desc-text">Godot 4.6 | GDScript | 无限网格地图建造游戏</text>

  <!-- ========== 左侧：项目文件目录结构 ========== -->
  <rect x="20" y="75" width="430" height="840" rx="8" fill="#fff" stroke="#dee2e6" stroke-width="2"/>
  <text x="235" y="100" text-anchor="middle" class="subtitle">📁 项目文件目录结构</text>
  <line x1="30" y1="108" x2="440" y2="108" stroke="#dee2e6" stroke-width="1"/>

  <!-- demo/ 根目录 -->
  <rect x="45" y="118" width="80" height="24" rx="4" fill="#3498db"/>
  <text x="85" y="134" text-anchor="middle" class="folder-text">demo/</text>

  <!-- .godot/ -->
  <rect x="65" y="152" width="80" height="20" rx="3" fill="#5dade2"/>
  <text x="105" y="166" text-anchor="middle" class="folder-text">.godot/</text>
  <line x1="85" y1="142" x2="85" y2="152" stroke="#bdc3c7" stroke-width="1"/>
  <line x1="85" y1="152" x2="65" y2="152" stroke="#bdc3c7" stroke-width="1"/>

  <!-- addons/ -->
  <rect x="65" y="178" width="80" height="20" rx="3" fill="#5dade2"/>
  <text x="105" y="192" text-anchor="middle" class="folder-text">addons/</text>
  <line x1="85" y1="142" x2="85" y2="178" stroke="#bdc3c7" stroke-width="1"/>
  <line x1="85" y1="178" x2="65" y2="178" stroke="#bdc3c7" stroke-width="1"/>
  <!-- godot_mcp/ -->
  <rect x="155" y="178" width="90" height="18" rx="3" fill="#85c1e9"/>
  <text x="200" y="190" text-anchor="middle" class="folder-text" font-size="10">godot_mcp/</text>
  <line x1="145" y1="188" x2="155" y2="188" stroke="#bdc3c7" stroke-width="1"/>

  <!-- scripts/ -->
  <rect x="65" y="204" width="80" height="20" rx="3" fill="#5dade2"/>
  <text x="105" y="218" text-anchor="middle" class="folder-text">scripts/</text>
  <line x1="85" y1="142" x2="85" y2="204" stroke="#bdc3c7" stroke-width="1"/>
  <line x1="85" y1="204" x2="65" y2="204" stroke="#bdc3c7" stroke-width="1"/>

  <!-- scripts 子目录 -->
  <rect x="155" y="204" width="80" height="18" rx="3" fill="#85c1e9"/>
  <text x="195" y="216" text-anchor="middle" class="folder-text" font-size="10">autoload/</text>
  <line x1="145" y1="214" x2="155" y2="214" stroke="#bdc3c7" stroke-width="1"/>

  <rect x="155" y="226" width="80" height="18" rx="3" fill="#85c1e9"/>
  <text x="195" y="238" text-anchor="middle" class="folder-text" font-size="10">building/</text>
  <line x1="145" y1="214" x2="145" y2="235" stroke="#bdc3c7" stroke-width="1"/>
  <line x1="145" y1="235" x2="155" y2="235" stroke="#bdc3c7" stroke-width="1"/>

  <rect x="155" y="248" width="80" height="18" rx="3" fill="#85c1e9"/>
  <text x="195" y="260" text-anchor="middle" class="folder-text" font-size="10">grid/</text>
  <line x1="145" y1="214" x2="145" y2="257" stroke="#bdc3c7" stroke-width="1"/>
  <line x1="145" y1="257" x2="155" y2="257" stroke="#bdc3c7" stroke-width="1"/>

  <rect x="155" y="270" width="80" height="18" rx="3" fill="#85c1e9"/>
  <text x="195" y="282" text-anchor="middle" class="folder-text" font-size="10">persistence/</text>
  <line x1="145" y1="214" x2="145" y2="279" stroke="#bdc3c7" stroke-width="1"/>
  <line x1="145" y1="279" x2="155" y2="279" stroke="#bdc3c7" stroke-width="1"/>

  <rect x="155" y="292" width="80" height="18" rx="3" fill="#85c1e9"/>
  <text x="195" y="304" text-anchor="middle" class="folder-text" font-size="10">resources/</text>
  <line x1="145" y1="214" x2="145" y2="301" stroke="#bdc3c7" stroke-width="1"/>
  <line x1="145" y1="301" x2="155" y2="301" stroke="#bdc3c7" stroke-width="1"/>

  <rect x="155" y="314" width="80" height="18" rx="3" fill="#85c1e9"/>
  <text x="195" y="326" text-anchor="middle" class="folder-text" font-size="10">ui/</text>
  <line x1="145" y1="214" x2="145" y2="323" stroke="#bdc3c7" stroke-width="1"/>
  <line x1="145" y1="323" x2="155" y2="323" stroke="#bdc3c7" stroke-width="1"/>

  <!-- scripts 根级脚本 -->
  <rect x="155" y="340" width="110" height="16" rx="2" fill="#e8f8f5" stroke="#1abc9c" stroke-width="1"/>
  <text x="210" y="351" text-anchor="middle" class="file-text" font-size="10">main.gd</text>
  <line x1="145" y1="214" x2="145" y2="348" stroke="#bdc3c7" stroke-width="1"/>
  <line x1="145" y1="348" x2="155" y2="348" stroke="#bdc3c7" stroke-width="1"/>

  <rect x="155" y="360" width="110" height="16" rx="2" fill="#e8f8f5" stroke="#1abc9c" stroke-width="1"/>
  <text x="210" y="371" text-anchor="middle" class="file-text" font-size="10">InfiniteGridMap.gd</text>
  <line x1="145" y1="348" x2="145" y2="368" stroke="#bdc3c7" stroke-width="1"/>
  <line x1="145" y1="368" x2="155" y2="368" stroke="#bdc3c7" stroke-width="1"/>

  <rect x="155" y="380" width="110" height="16" rx="2" fill="#e8f8f5" stroke="#1abc9c" stroke-width="1"/>
  <text x="210" y="391" text-anchor="middle" class="file-text" font-size="10">CameraController.gd</text>
  <line x1="145" y1="368" x2="145" y2="388" stroke="#bdc3c7" stroke-width="1"/>
  <line x1="145" y1="388" x2="155" y2="388" stroke="#bdc3c7" stroke-width="1"/>

  <rect x="155" y="400" width="110" height="16" rx="2" fill="#e8f8f5" stroke="#1abc9c" stroke-width="1"/>
  <text x="210" y="411" text-anchor="middle" class="file-text" font-size="10">StartMenu.gd</text>
  <line x1="145" y1="388" x2="145" y2="408" stroke="#bdc3c7" stroke-width="1"/>
  <line x1="145" y1="408" x2="155" y2="408" stroke="#bdc3c7" stroke-width="1"/>

  <rect x="155" y="420" width="110" height="16" rx="2" fill="#e8f8f5" stroke="#1abc9c" stroke-width="1"/>
  <text x="210" y="431" text-anchor="middle" class="file-text" font-size="10">Settings.gd</text>
  <line x1="145" y1="408" x2="145" y2="428" stroke="#bdc3c7" stroke-width="1"/>
  <line x1="145" y1="428" x2="155" y2="428" stroke="#bdc3c7" stroke-width="1"/>

  <!-- autoload 脚本 -->
  <rect x="245" y="204" width="130" height="16" rx="2" fill="#e8f8f5" stroke="#1abc9c" stroke-width="1"/>
  <text x="310" y="215" text-anchor="middle" class="file-text" font-size="10">game_config.gd</text>
  <line x1="235" y1="213" x2="245" y2="213" stroke="#bdc3c7" stroke-width="1"/>

  <rect x="245" y="222" width="130" height="16" rx="2" fill="#e8f8f5" stroke="#1abc9c" stroke-width="1"/>
  <text x="310" y="233" text-anchor="middle" class="file-text" font-size="10">scene_paths.gd</text>
  <line x1="235" y1="213" x2="235" y2="230" stroke="#bdc3c7" stroke-width="1"/>
  <line x1="235" y1="230" x2="245" y2="230" stroke="#bdc3c7" stroke-width="1"/>

  <rect x="245" y="240" width="130" height="16" rx="2" fill="#e8f8f5" stroke="#1abc9c" stroke-width="1"/>
  <text x="310" y="251" text-anchor="middle" class="file-text" font-size="10">event_bus.gd</text>
  <line x1="235" y1="230" x2="235" y2="248" stroke="#bdc3c7" stroke-width="1"/>
  <line x1="235" y1="248" x2="245" y2="248" stroke="#bdc3c7" stroke-width="1"/>

  <rect x="245" y="258" width="130" height="16" rx="2" fill="#e8f8f5" stroke="#1abc9c" stroke-width="1"/>
  <text x="310" y="269" text-anchor="middle" class="file-text" font-size="10">scene_manager.gd</text>
  <line x1="235" y1="248" x2="235" y2="266" stroke="#bdc3c7" stroke-width="1"/>
  <line x1="235" y1="266" x2="245" y2="266" stroke="#bdc3c7" stroke-width="1"/>

  <rect x="245" y="276" width="130" height="16" rx="2" fill="#e8f8f5" stroke="#1abc9c" stroke-width="1"/>
  <text x="310" y="287" text-anchor="middle" class="file-text" font-size="10">keybind_manager.gd</text>
  <line x1="235" y1="266" x2="235" y2="284" stroke="#bdc3c7" stroke-width="1"/>
  <line x1="235" y1="284" x2="245" y2="284" stroke="#bdc3c7" stroke-width="1"/>

  <!-- resources/ -->
  <rect x="65" y="450" width="80" height="20" rx="3" fill="#5dade2"/>
  <text x="105" y="464" text-anchor="middle" class="folder-text">resources/</text>
  <line x1="85" y1="142" x2="85" y2="450" stroke="#bdc3c7" stroke-width="1"/>
  <line x1="85" y1="450" x2="65" y2="450" stroke="#bdc3c7" stroke-width="1"/>

  <rect x="155" y="450" width="110" height="16" rx="2" fill="#f5eef8" stroke="#9b59b6" stroke-width="1"/>
  <text x="210" y="461" text-anchor="middle" class="file-text" font-size="10">building_01~10.svg</text>
  <line x1="145" y1="458" x2="155" y2="458" stroke="#bdc3c7" stroke-width="1"/>

  <rect x="155" y="470" width="110" height="16" rx="2" fill="#f5eef8" stroke="#9b59b6" stroke-width="1"/>
  <text x="210" y="481" text-anchor="middle" class="file-text" font-size="10">building_default.svg</text>
  <line x1="145" y1="458" x2="145" y2="478" stroke="#bdc3c7" stroke-width="1"/>
  <line x1="145" y1="478" x2="155" y2="478" stroke="#bdc3c7" stroke-width="1"/>

  <!-- scenes/ -->
  <rect x="65" y="496" width="80" height="20" rx="3" fill="#5dade2"/>
  <text x="105" y="510" text-anchor="middle" class="folder-text">scenes/</text>
  <line x1="85" y1="142" x2="85" y2="496" stroke="#bdc3c7" stroke-width="1"/>
  <line x1="85" y1="496" x2="65" y2="496" stroke="#bdc3c7" stroke-width="1"/>

  <rect x="155" y="496" width="110" height="16" rx="2" fill="#fef5e7" stroke="#f39c12" stroke-width="1"/>
  <text x="210" y="507" text-anchor="middle" class="file-text" font-size="10">main.tscn</text>
  <line x1="145" y1="506" x2="155" y2="506" stroke="#bdc3c7" stroke-width="1"/>

  <rect x="155" y="516" width="110" height="16" rx="2" fill="#fef5e7" stroke="#f39c12" stroke-width="1"/>
  <text x="210" y="527" text-anchor="middle" class="file-text" font-size="10">start_menu.tscn</text>
  <line x1="145" y1="506" x2="145" y2="524" stroke="#bdc3c7" stroke-width="1"/>
  <line x1="145" y1="524" x2="155" y2="524" stroke="#bdc3c7" stroke-width="1"/>

  <rect x="155" y="536" width="110" height="16" rx="2" fill="#fef5e7" stroke="#f39c12" stroke-width="1"/>
  <text x="210" y="547" text-anchor="middle" class="file-text" font-size="10">settings.tscn</text>
  <line x1="145" y1="524" x2="145" y2="544" stroke="#bdc3c7" stroke-width="1"/>
  <line x1="145" y1="544" x2="155" y2="544" stroke="#bdc3c7" stroke-width="1"/>

  <rect x="155" y="556" width="110" height="16" rx="2" fill="#fef5e7" stroke="#f39c12" stroke-width="1"/>
  <text x="210" y="567" text-anchor="middle" class="file-text" font-size="10">inventory_bar.tscn</text>
  <line x1="145" y1="544" x2="145" y2="564" stroke="#bdc3c7" stroke-width="1"/>
  <line x1="145" y1="564" x2="155" y2="564" stroke="#bdc3c7" stroke-width="1"/>

  <rect x="155" y="576" width="110" height="16" rx="2" fill="#fef5e7" stroke="#f39c12" stroke-width="1"/>
  <text x="210" y="587" text-anchor="middle" class="file-text" font-size="10">inventory_slot.tscn</text>
  <line x1="145" y1="564" x2="145" y2="584" stroke="#bdc3c7" stroke-width="1"/>
  <line x1="145" y1="584" x2="155" y2="584" stroke="#bdc3c7" stroke-width="1"/>

  <!-- save/ -->
  <rect x="65" y="602" width="80" height="20" rx="3" fill="#5dade2"/>
  <text x="105" y="616" text-anchor="middle" class="folder-text">save/</text>
  <line x1="85" y1="142" x2="85" y2="602" stroke="#bdc3c7" stroke-width="1"/>
  <line x1="85" y1="602" x2="65" y2="602" stroke="#bdc3c7" stroke-width="1"/>

  <rect x="155" y="602" width="110" height="16" rx="2" fill="#eaf2f8" stroke="#3498db" stroke-width="1"/>
  <text x="210" y="613" text-anchor="middle" class="file-text" font-size="10">buildings.json</text>
  <line x1="145" y1="612" x2="155" y2="612" stroke="#bdc3c7" stroke-width="1"/>

  <rect x="155" y="622" width="110" height="16" rx="2" fill="#eaf2f8" stroke="#3498db" stroke-width="1"/>
  <text x="210" y="633" text-anchor="middle" class="file-text" font-size="10">keybindings.json</text>
  <line x1="145" y1="612" x2="145" y2="630" stroke="#bdc3c7" stroke-width="1"/>
  <line x1="145" y1="630" x2="155" y2="630" stroke="#bdc3c7" stroke-width="1"/>

  <!-- 根级文件 -->
  <rect x="65" y="648" width="120" height="16" rx="2" fill="#fdf2f2" stroke="#e74c3c" stroke-width="1"/>
  <text x="125" y="659" text-anchor="middle" class="file-text" font-size="10">project.godot</text>
  <line x1="85" y1="142" x2="85" y2="656" stroke="#bdc3c7" stroke-width="1"/>
  <line x1="85" y1="656" x2="65" y2="656" stroke="#bdc3c7" stroke-width="1"/>

  <rect x="65" y="668" width="120" height="16" rx="2" fill="#f0f0f0" stroke="#7f8c8d" stroke-width="1"/>
  <text x="125" y="679" text-anchor="middle" class="file-text" font-size="10">.gitignore</text>
  <line x1="85" y1="656" x2="85" y2="676" stroke="#bdc3c7" stroke-width="1"/>
  <line x1="85" y1="676" x2="65" y2="676" stroke="#bdc3c7" stroke-width="1"/>

  <rect x="65" y="688" width="120" height="16" rx="2" fill="#f0f0f0" stroke="#7f8c8d" stroke-width="1"/>
  <text x="125" y="699" text-anchor="middle" class="file-text" font-size="10">AGENTS.md</text>
  <line x1="85" y1="676" x2="85" y2="696" stroke="#bdc3c7" stroke-width="1"/>
  <line x1="85" y1="696" x2="65" y2="696" stroke="#bdc3c7" stroke-width="1"/>

  <!-- ========== 右侧上：自动加载单例 (Autoload) ========== -->
  <rect x="470" y="75" width="440" height="200" rx="8" fill="#fff" stroke="#dee2e6" stroke-width="2"/>
  <text x="690" y="100" text-anchor="middle" class="subtitle">⚙️ 自动加载单例 (Autoload)</text>
  <line x1="480" y1="108" x2="900" y2="108" stroke="#dee2e6" stroke-width="1"/>

  <rect x="490" y="120" width="120" height="28" rx="4" fill="#e74c3c"/>
  <text x="550" y="138" text-anchor="middle" class="node-text" font-size="11">GameConfig</text>
  <text x="550" y="152" text-anchor="middle" class="desc-text" font-size="9">游戏配置与常量</text>

  <rect x="620" y="120" width="120" height="28" rx="4" fill="#e74c3c"/>
  <text x="680" y="138" text-anchor="middle" class="node-text" font-size="11">ScenePaths</text>
  <text x="680" y="152" text-anchor="middle" class="desc-text" font-size="9">场景路径常量</text>

  <rect x="750" y="120" width="120" height="28" rx="4" fill="#e74c3c"/>
  <text x="810" y="138" text-anchor="middle" class="node-text" font-size="11">EventBus</text>
  <text x="810" y="152" text-anchor="middle" class="desc-text" font-size="9">模块间事件通信</text>

  <rect x="490" y="165" width="120" height="28" rx="4" fill="#e74c3c"/>
  <text x="550" y="183" text-anchor="middle" class="node-text" font-size="11">SceneManager</text>
  <text x="550" y="197" text-anchor="middle" class="desc-text" font-size="9">场景切换管理</text>

  <rect x="620" y="165" width="120" height="28" rx="4" fill="#e74c3c"/>
  <text x="680" y="183" text-anchor="middle" class="node-text" font-size="11">KeybindManager</text>
  <text x="680" y="197" text-anchor="middle" class="desc-text" font-size="9">按键配置管理</text>

  <rect x="750" y="165" width="120" height="28" rx="4" fill="#e74c3c"/>
  <text x="810" y="183" text-anchor="middle" class="node-text" font-size="11">MCPRuntime</text>
  <text x="810" y="197" text-anchor="middle" class="desc-text" font-size="9">MCP调试辅助</text>

  <!-- EventBus 信号列表 -->
  <rect x="490" y="210" width="380" height="55" rx="4" fill="#fdf2f2" stroke="#f5b7b1" stroke-width="1"/>
  <text x="500" y="225" class="subtitle" font-size="11">EventBus 信号:</text>
  <text x="500" y="240" class="signal-text">building_placed(grid_pos)</text>
  <text x="640" y="240" class="signal-text">building_removed(grid_pos)</text>
  <text x="780" y="240" class="signal-text">buildings_loaded()</text>
  <text x="500" y="255" class="signal-text">keybind_changed(action)</text>
  <text x="640" y="255" class="signal-text">start_game_requested()</text>
  <text x="500" y="255" class="signal-text"/>

  <!-- ========== 右侧下：主场景运行时节点树 ========== -->
  <rect x="470" y="285" width="440" height="630" rx="8" fill="#fff" stroke="#dee2e6" stroke-width="2"/>
  <text x="690" y="310" text-anchor="middle" class="subtitle">🎮 主场景运行时节点树 (main.tscn)</text>
  <line x1="480" y1="318" x2="900" y2="318" stroke="#dee2e6" stroke-width="1"/>

  <!-- Root (Node2D) -->
  <rect x="530" y="330" width="140" height="26" rx="4" fill="#2c3e50"/>
  <text x="600" y="347" text-anchor="middle" class="node-text">Root (Node2D)</text>

  <!-- Camera2D -->
  <rect x="560" y="370" width="160" height="22" rx="3" fill="#27ae60"/>
  <text x="640" y="385" text-anchor="middle" class="node-text">Camera2D → CameraController.gd</text>
  <line x1="600" y1="356" x2="600" y2="370" stroke="#bdc3c7" stroke-width="1"/>
  <line x1="600" y1="370" x2="560" y2="370" stroke="#bdc3c7" stroke-width="1"/>

  <!-- InfiniteGridMap -->
  <rect x="560" y="400" width="160" height="22" rx="3" fill="#27ae60"/>
  <text x="640" y="415" text-anchor="middle" class="node-text">InfiniteGridMap → InfiniteGridMap.gd</text>
  <line x1="600" y1="356" x2="600" y2="400" stroke="#bdc3c7" stroke-width="1"/>
  <line x1="600" y1="400" x2="560" y2="400" stroke="#bdc3c7" stroke-width="1"/>

  <!-- BuildingManager -->
  <rect x="560" y="430" width="160" height="22" rx="3" fill="#27ae60"/>
  <text x="640" y="445" text-anchor="middle" class="node-text">BuildingManager → building_manager.gd</text>
  <line x1="600" y1="356" x2="600" y2="430" stroke="#bdc3c7" stroke-width="1"/>
  <line x1="600" y1="430" x2="560" y2="430" stroke="#bdc3c7" stroke-width="1"/>

  <!-- SaveManager -->
  <rect x="560" y="460" width="160" height="22" rx="3" fill="#27ae60"/>
  <text x="640" y="475" text-anchor="middle" class="node-text">SaveManager → save_manager.gd</text>
  <line x1="600" y1="356" x2="600" y2="460" stroke="#bdc3c7" stroke-width="1"/>
  <line x1="600" y1="460" x2="560" y2="460" stroke="#bdc3c7" stroke-width="1"/>

  <!-- MapInputHandler -->
  <rect x="560" y="490" width="160" height="22" rx="3" fill="#27ae60"/>
  <text x="640" y="505" text-anchor="middle" class="node-text">MapInputHandler → map_input_handler.gd</text>
  <line x1="600" y1="356" x2="600" y2="490" stroke="#bdc3c7" stroke-width="1"/>
  <line x1="600" y1="490" x2="560" y2="490" stroke="#bdc3c7" stroke-width="1"/>

  <!-- UIOverlay (CanvasLayer) -->
  <rect x="560" y="530" width="140" height="22" rx="3" fill="#8e44ad"/>
  <text x="630" y="545" text-anchor="middle" class="node-text">UIOverlay (CanvasLayer)</text>
  <line x1="600" y1="356" x2="600" y2="530" stroke="#bdc3c7" stroke-width="1"/>
  <line x1="600" y1="530" x2="560" y2="530" stroke="#bdc3c7" stroke-width="1"/>

  <!-- StartMenu -->
  <rect x="590" y="565" width="140" height="22" rx="3" fill="#9b59b6"/>
  <text x="660" y="580" text-anchor="middle" class="node-text">StartMenu → StartMenu.gd</text>
  <line x1="630" y1="552" x2="630" y2="565" stroke="#bdc3c7" stroke-width="1"/>
  <line x1="630" y1="565" x2="590" y2="565" stroke="#bdc3c7" stroke-width="1"/>

  <!-- SettingsPanel -->
  <rect x="590" y="595" width="140" height="22" rx="3" fill="#9b59b6"/>
  <text x="660" y="610" text-anchor="middle" class="node-text">SettingsPanel → Settings.gd</text>
  <line x1="630" y1="552" x2="630" y2="595" stroke="#bdc3c7" stroke-width="1"/>
  <line x1="630" y1="595" x2="590" y2="595" stroke="#bdc3c7" stroke-width="1"/>

  <!-- InventoryBar -->
  <rect x="590" y="625" width="140" height="22" rx="3" fill="#9b59b6"/>
  <text x="660" y="640" text-anchor="middle" class="node-text">InventoryBar → inventory_bar.gd</text>
  <line x1="630" y1="552" x2="630" y2="625" stroke="#bdc3c7" stroke-width="1"/>
  <line x1="630" y1="625" x2="590" y2="625" stroke="#bdc3c7" stroke-width="1"/>

  <!-- ========== 模块通信关系图 ========== -->
  <rect x="530" y="670" width="340" height="230" rx="8" fill="#f8f9fa" stroke="#dee2e6" stroke-width="1"/>
  <text x="700" y="690" text-anchor="middle" class="subtitle">📡 核心模块交互关系</text>

  <!-- 模块节点 -->
  <rect x="550" y="710" width="90" height="28" rx="4" fill="#3498db"/>
  <text x="595" y="728" text-anchor="middle" class="node-text" font-size="10">MapInputHandler</text>

  <rect x="660" y="710" width="90" height="28" rx="4" fill="#27ae60"/>
  <text x="705" y="728" text-anchor="middle" class="node-text" font-size="10">BuildingManager</text>

  <rect x="770" y="710" width="80" height="28" rx="4" fill="#f39c12"/>
  <text x="810" y="728" text-anchor="middle" class="node-text" font-size="10">SaveManager</text>

  <rect x="550" y="770" width="90" height="28" rx="4" fill="#8e44ad"/>
  <text x="595" y="788" text-anchor="middle" class="node-text" font-size="10">CameraController</text>

  <rect x="660" y="770" width="90" height="28" rx="4" fill="#e74c3c"/>
  <text x="705" y="788" text-anchor="middle" class="node-text" font-size="10">EventBus</text>

  <rect x="770" y="770" width="80" height="28" rx="4" fill="#9b59b6"/>
  <text x="810" y="788" text-anchor="middle" class="node-text" font-size="10">GridCoordinate</text>

  <!-- 交互箭头 -->
  <!-- MapInputHandler -> BuildingManager (直接调用) -->
  <line x1="640" y1="724" x2="660" y2="724" stroke="#7f8c8d" stroke-width="1.5" marker-end="url(#arrow)"/>
  <text x="650" y="720" class="desc-text" font-size="8">放置/删除</text>

  <!-- BuildingManager -> SaveManager (EventBus) -->
  <line x1="705" y1="738" x2="810" y2="770" stroke="#e74c3c" stroke-width="1.5" marker-end="url(#arrow-event)" stroke-dasharray="4,2"/>
  <text x="770" y="760" class="desc-text" font-size="8">building_placed</text>

  <!-- MapInputHandler -> CameraController (直接) -->
  <line x1="595" y1="738" x2="595" y2="770" stroke="#7f8c8d" stroke-width="1.5" marker-end="url(#arrow)"/>

  <!-- 所有模块通过EventBus通信 -->
  <ellipse cx="705" cy="800" rx="55" ry="12" fill="none" stroke="#e74c3c" stroke-width="1" stroke-dasharray="3,2"/>
  <text x="705" y="804" text-anchor="middle" class="desc-text" font-size="9">事件总线松耦合通信</text>

  <!-- 说明文本 -->
  <text x="700" y="840" text-anchor="middle" class="desc-text" font-size="10">实线箭头 = 直接节点引用 (get_node)</text>
  <text x="700" y="855" text-anchor="middle" class="desc-text" font-size="10">虚线箭头 = EventBus 信号通信</text>
  <text x="700" y="870" text-anchor="middle" class="desc-text" font-size="10">同场景兄弟节点允许直接引用，跨场景必须通过EventBus</text>

  <!-- ========== 底部：图例 ========== -->
  <rect x="20" y="930" width="430" height="140" rx="8" fill="#fff" stroke="#dee2e6" stroke-width="2"/>
  <text x="235" y="955" text-anchor="middle" class="subtitle">📋 图例说明</text>
  <line x1="30" y1="963" x2="440" y2="963" stroke="#dee2e6" stroke-width="1"/>

  <rect x="45" y="975" width="20" height="14" rx="2" fill="#3498db"/>
  <text x="75" y="985" class="legend-text">文件夹目录</text>

  <rect x="160" y="975" width="20" height="14" rx="2" fill="#e8f8f5" stroke="#1abc9c" stroke-width="1"/>
  <text x="190" y="985" class="legend-text">GDScript 脚本</text>

  <rect x="45" y="998" width="20" height="14" rx="2" fill="#fef5e7" stroke="#f39c12" stroke-width="1"/>
  <text x="75" y="1008" class="legend-text">Godot 场景 (.tscn)</text>

  <rect x="160" y="998" width="20" height="14" rx="2" fill="#f5eef8" stroke="#9b59b6" stroke-width="1"/>
  <text x="190" y="1008" class="legend-text">图像/资源文件</text>

  <rect x="45" y="1021" width="20" height="14" rx="2" fill="#2c3e50"/>
  <text x="75" y="1031" class="legend-text">场景根节点</text>

  <rect x="160" y="1021" width="20" height="14" rx="2" fill="#27ae60"/>
  <text x="190" y="1031" class="legend-text">游戏逻辑节点</text>

  <rect x="280" y="975" width="20" height="14" rx="2" fill="#8e44ad"/>
  <text x="310" y="985" class="legend-text">UI / CanvasLayer</text>

  <rect x="280" y="998" width="20" height="14" rx="2" fill="#e74c3c"/>
  <text x="310" y="1008" class="legend-text">Autoload 单例</text>

  <rect x="280" y="1021" width="20" height="14" rx="2" fill="#eaf2f8" stroke="#3498db" stroke-width="1"/>
  <text x="310" y="1031" class="legend-text">JSON 数据文件</text>

  <!-- ========== 右侧底部：核心功能说明 ========== -->
  <rect x="470" y="930" width="440" height="140" rx="8" fill="#fff" stroke="#dee2e6" stroke-width="2"/>
  <text x="690" y="955" text-anchor="middle" class="subtitle">🎯 核心功能模块</text>
  <line x1="480" y1="963" x2="900" y2="963" stroke="#dee2e6" stroke-width="1"/>

  <text x="490" y="982" class="legend-text">• 无限网格地图: 基于视口动态加载/卸载 640px 区块</text>
  <text x="490" y="999" class="legend-text">• 建筑系统: 左键放置(单击/直线拖拽), 右键删除(单击/矩形框选)</text>
  <text x="490" y="1016" class="legend-text">• 相机漫游: WASD移动, Shift加速, 滚轮缩放</text>
  <text x="490" y="1033" class="legend-text">• 数据持久化: 建筑数据自动保存/加载 (buildings.json)</text>
  <text x="490" y="1050" class="legend-text">• 按键配置: 支持自定义按键绑定, 设置页面实时修改</text>

</svg>