<svg xmlns="http://www.w3.org/2000/svg" width="64" height="64" viewBox="0 0 64 64">
  <rect x="6" y="6" width="52" height="52" rx="4" fill="none" stroke="#7f8c8d" stroke-width="2.5"/>
  <path d="M32 10 C26 22 18 28 18 38 C18 46 24 52 32 52 C40 52 46 46 46 38 C46 28 38 22 32 10Z" fill="#e67e22"/>
  <path d="M32 16 C28 26 22 31 22 38 C22 44 26 48 32 48" fill="none" stroke="#f39c12" stroke-width="2.5" opacity="0.6"/>
  <path d="M32 20 C30 28 26 32 26 38 C26 42 28 45 32 45" fill="#f1c40f" opacity="0.5"/>
  <rect x="6" y="6" width="52" height="52" rx="4" fill="none" stroke="#616a6b" stroke-width="2"/>
</svg>
