<svg xmlns="http://www.w3.org/2000/svg" width="64" height="64" viewBox="0 0 64 64">
  <rect x="6" y="6" width="52" height="52" rx="3" fill="#2c2c2c" stroke="#5a5a5a" stroke-width="2.5"/>
  <rect x="14" y="24" width="36" height="14" rx="3" fill="#95a5a6"/>
  <rect x="16" y="25" width="32" height="4" rx="2" fill="#bdc8c8" opacity="0.40"/>
  <rect x="16" y="35" width="32" height="3" fill="#6a7878" opacity="0.35"/>
  <rect x="22" y="26" width="20" height="10" rx="2" fill="#1a5276"/>
  <rect x="22" y="26" width="20" height="4" fill="#2980b9"/>
  <rect x="22" y="31" width="20" height="3" rx="0" fill="#5dade2" opacity="0.50"/>
  <rect x="24" y="26" width="16" height="2" rx="1" fill="#85c1e9" opacity="0.40"/>
  <rect x="8" y="21" width="8" height="20" rx="2" fill="#7f8c8d"/>
  <rect x="9" y="22" width="3" height="18" fill="#a0b0b0"/>
  <circle cx="11" cy="24" r="1.2" fill="#cbd5d5"/>
  <circle cx="11" cy="38" r="1.2" fill="#cbd5d5"/>
  <rect x="48" y="21" width="8" height="20" rx="2" fill="#7f8c8d"/>
  <rect x="52" y="22" width="3" height="18" fill="#a0b0b0"/>
  <circle cx="53" cy="24" r="1.2" fill="#cbd5d5"/>
  <circle cx="53" cy="38" r="1.2" fill="#cbd5d5"/>
  <rect x="6" y="6" width="52" height="52" rx="3" fill="none" stroke="#404040" stroke-width="2"/>
</svg>